<?xml version="1.0" encoding="UTF-8" standalone="no"?>
<!DOCTYPE svg PUBLIC "-//W3C//DTD SVG 1.1//EN"
 "http://www.w3.org/Graphics/SVG/1.1/DTD/svg11.dtd">
<!-- Generated by graphviz version 2.47.3 (20210619.1520)
 -->
<!-- Title: dependencies Pages: 1 -->
<svg width="454pt" height="174pt"
 viewBox="0.00 0.00 454.00 173.80" xmlns="http://www.w3.org/2000/svg" xmlns:xlink="http://www.w3.org/1999/xlink">
<g id="graph0" class="graph" transform="scale(1 1) rotate(0) translate(4 169.8)">
<title>dependencies</title>
<polygon fill="white" stroke="transparent" points="-4,4 -4,-169.8 450,-169.8 450,4 -4,4"/>
<text text-anchor="middle" x="223" y="-8.2" font-family="sans-serif" font-size="14.00">dependencies</text>
<g id="clust1" class="cluster">
<title>cluster_ServicesModule</title>
<polygon fill="none" stroke="black" stroke-dasharray="1,5" points="8,-32.8 8,-157.8 438,-157.8 438,-32.8 8,-32.8"/>
</g>
<g id="clust6" class="cluster">
<title>cluster_ServicesModule_providers</title>
<polygon fill="none" stroke="black" points="268,-40.8 268,-92.8 430,-92.8 430,-40.8 268,-40.8"/>
</g>
<g id="clust3" class="cluster">
<title>cluster_ServicesModule_imports</title>
<polygon fill="none" stroke="black" points="16,-40.8 16,-92.8 260,-92.8 260,-40.8 16,-40.8"/>
</g>
<!-- IntranetModule -->
<g id="node1" class="node">
<title>IntranetModule</title>
<polygon fill="#8dd3c7" stroke="black" points="251.58,-84.8 248.58,-88.8 227.58,-88.8 224.58,-84.8 148.42,-84.8 148.42,-48.8 251.58,-48.8 251.58,-84.8"/>
<text text-anchor="middle" x="200" y="-62.6" font-family="Times,serif" font-size="14.00">IntranetModule</text>
</g>
<!-- ServicesModule -->
<g id="node3" class="node">
<title>ServicesModule</title>
<polygon fill="#8dd3c7" stroke="black" points="253.47,-149.8 250.47,-153.8 229.47,-153.8 226.47,-149.8 146.53,-149.8 146.53,-113.8 253.47,-113.8 253.47,-149.8"/>
<text text-anchor="middle" x="200" y="-127.6" font-family="Times,serif" font-size="14.00">ServicesModule</text>
</g>
<!-- IntranetModule&#45;&gt;ServicesModule -->
<g id="edge1" class="edge">
<title>IntranetModule&#45;&gt;ServicesModule</title>
<path fill="none" stroke="black" d="M200,-84.91C200,-84.91 200,-103.79 200,-103.79"/>
<polygon fill="black" stroke="black" points="196.5,-103.79 200,-113.79 203.5,-103.79 196.5,-103.79"/>
</g>
<!-- WeatherModule -->
<g id="node2" class="node">
<title>WeatherModule</title>
<polygon fill="#8dd3c7" stroke="black" points="130.46,-84.8 127.46,-88.8 106.46,-88.8 103.46,-84.8 23.54,-84.8 23.54,-48.8 130.46,-48.8 130.46,-84.8"/>
<text text-anchor="middle" x="77" y="-62.6" font-family="Times,serif" font-size="14.00">WeatherModule</text>
</g>
<!-- WeatherModule&#45;&gt;ServicesModule -->
<g id="edge2" class="edge">
<title>WeatherModule&#45;&gt;ServicesModule</title>
<path fill="none" stroke="black" d="M77,-84.91C77,-104.14 77,-131.8 77,-131.8 77,-131.8 136.41,-131.8 136.41,-131.8"/>
<polygon fill="black" stroke="black" points="136.41,-135.3 146.41,-131.8 136.41,-128.3 136.41,-135.3"/>
</g>
<!-- ServicesService -->
<g id="node4" class="node">
<title>ServicesService</title>
<ellipse fill="#fdb462" stroke="black" cx="349" cy="-66.8" rx="72.91" ry="18"/>
<text text-anchor="middle" x="349" y="-62.6" font-family="Times,serif" font-size="14.00">ServicesService</text>
</g>
<!-- ServicesService&#45;&gt;ServicesModule -->
<g id="edge3" class="edge">
<title>ServicesService&#45;&gt;ServicesModule</title>
<path fill="none" stroke="black" d="M349,-84.91C349,-104.14 349,-131.8 349,-131.8 349,-131.8 263.79,-131.8 263.79,-131.8"/>
<polygon fill="black" stroke="black" points="263.79,-128.3 253.79,-131.8 263.79,-135.3 263.79,-128.3"/>
</g>
</g>
</svg>
