<?xml version="1.0" encoding="UTF-8" standalone="no"?>
<!DOCTYPE svg PUBLIC "-//W3C//DTD SVG 1.1//EN"
 "http://www.w3.org/Graphics/SVG/1.1/DTD/svg11.dtd">
<!-- Generated by graphviz version 2.47.3 (20210619.1520)
 -->
<!-- Title: dependencies Pages: 1 -->
<svg width="615pt" height="174pt"
 viewBox="0.00 0.00 615.00 173.80" xmlns="http://www.w3.org/2000/svg" xmlns:xlink="http://www.w3.org/1999/xlink">
<g id="graph0" class="graph" transform="scale(1 1) rotate(0) translate(4 169.8)">
<title>dependencies</title>
<polygon fill="white" stroke="transparent" points="-4,4 -4,-169.8 611,-169.8 611,4 -4,4"/>
<text text-anchor="middle" x="303.5" y="-8.2" font-family="sans-serif" font-size="14.00">dependencies</text>
<g id="clust1" class="cluster">
<title>cluster_AuthModule</title>
<polygon fill="none" stroke="black" stroke-dasharray="1,5" points="8,-32.8 8,-157.8 599,-157.8 599,-32.8 8,-32.8"/>
</g>
<g id="clust6" class="cluster">
<title>cluster_AuthModule_providers</title>
<polygon fill="none" stroke="black" points="16,-40.8 16,-92.8 591,-92.8 591,-40.8 16,-40.8"/>
</g>
<!-- AuthService -->
<g id="node1" class="node">
<title>AuthService</title>
<ellipse fill="#fdb462" stroke="black" cx="524" cy="-66.8" rx="59.11" ry="18"/>
<text text-anchor="middle" x="524" y="-62.6" font-family="Times,serif" font-size="14.00">AuthService</text>
</g>
<!-- AuthModule -->
<g id="node5" class="node">
<title>AuthModule</title>
<polygon fill="#8dd3c7" stroke="black" points="350.55,-149.8 347.55,-153.8 326.55,-153.8 323.55,-149.8 263.45,-149.8 263.45,-113.8 350.55,-113.8 350.55,-149.8"/>
<text text-anchor="middle" x="307" y="-127.6" font-family="Times,serif" font-size="14.00">AuthModule</text>
</g>
<!-- AuthService&#45;&gt;AuthModule -->
<g id="edge1" class="edge">
<title>AuthService&#45;&gt;AuthModule</title>
<path fill="none" stroke="black" d="M524,-84.91C524,-104.14 524,-131.8 524,-131.8 524,-131.8 360.65,-131.8 360.65,-131.8"/>
<polygon fill="black" stroke="black" points="360.65,-128.3 350.65,-131.8 360.65,-135.3 360.65,-128.3"/>
</g>
<!-- BasicStrategy -->
<g id="node2" class="node">
<title>BasicStrategy</title>
<ellipse fill="#fdb462" stroke="black" cx="382" cy="-66.8" rx="64.84" ry="18"/>
<text text-anchor="middle" x="382" y="-62.6" font-family="Times,serif" font-size="14.00">BasicStrategy</text>
</g>
<!-- BasicStrategy&#45;&gt;AuthModule -->
<g id="edge2" class="edge">
<title>BasicStrategy&#45;&gt;AuthModule</title>
<path fill="none" stroke="black" d="M334.05,-79.03C334.05,-79.03 334.05,-103.48 334.05,-103.48"/>
<polygon fill="black" stroke="black" points="330.55,-103.48 334.05,-113.48 337.55,-103.48 330.55,-103.48"/>
</g>
<!-- PrismaService -->
<g id="node3" class="node">
<title>PrismaService</title>
<ellipse fill="#fdb462" stroke="black" cx="233" cy="-66.8" rx="66.63" ry="18"/>
<text text-anchor="middle" x="233" y="-62.6" font-family="Times,serif" font-size="14.00">PrismaService</text>
</g>
<!-- PrismaService&#45;&gt;AuthModule -->
<g id="edge3" class="edge">
<title>PrismaService&#45;&gt;AuthModule</title>
<path fill="none" stroke="black" d="M281.52,-79.33C281.52,-79.33 281.52,-103.65 281.52,-103.65"/>
<polygon fill="black" stroke="black" points="278.02,-103.65 281.52,-113.65 285.02,-103.65 278.02,-103.65"/>
</g>
<!-- UsersService -->
<g id="node4" class="node">
<title>UsersService</title>
<ellipse fill="#fdb462" stroke="black" cx="86" cy="-66.8" rx="61.95" ry="18"/>
<text text-anchor="middle" x="86" y="-62.6" font-family="Times,serif" font-size="14.00">UsersService</text>
</g>
<!-- UsersService&#45;&gt;AuthModule -->
<g id="edge4" class="edge">
<title>UsersService&#45;&gt;AuthModule</title>
<path fill="none" stroke="black" d="M86,-84.91C86,-104.14 86,-131.8 86,-131.8 86,-131.8 253.34,-131.8 253.34,-131.8"/>
<polygon fill="black" stroke="black" points="253.34,-135.3 263.34,-131.8 253.34,-128.3 253.34,-135.3"/>
</g>
</g>
</svg>
