<?xml version="1.0" encoding="UTF-8" standalone="no"?>
<!DOCTYPE svg PUBLIC "-//W3C//DTD SVG 1.1//EN"
 "http://www.w3.org/Graphics/SVG/1.1/DTD/svg11.dtd">
<!-- Generated by graphviz version 2.47.3 (20210619.1520)
 -->
<!-- Title: dependencies Pages: 1 -->
<svg width="633pt" height="174pt"
 viewBox="0.00 0.00 633.00 173.80" xmlns="http://www.w3.org/2000/svg" xmlns:xlink="http://www.w3.org/1999/xlink">
<g id="graph0" class="graph" transform="scale(1 1) rotate(0) translate(4 169.8)">
<title>dependencies</title>
<polygon fill="white" stroke="transparent" points="-4,4 -4,-169.8 629,-169.8 629,4 -4,4"/>
<text text-anchor="middle" x="312.5" y="-8.2" font-family="sans-serif" font-size="14.00">dependencies</text>
<g id="clust1" class="cluster">
<title>cluster_AppModule</title>
<polygon fill="none" stroke="black" stroke-dasharray="1,5" points="8,-32.8 8,-157.8 617,-157.8 617,-32.8 8,-32.8"/>
</g>
<g id="clust6" class="cluster">
<title>cluster_AppModule_providers</title>
<polygon fill="none" stroke="black" points="479,-40.8 479,-92.8 609,-92.8 609,-40.8 479,-40.8"/>
</g>
<g id="clust3" class="cluster">
<title>cluster_AppModule_imports</title>
<polygon fill="none" stroke="black" points="16,-40.8 16,-92.8 471,-92.8 471,-40.8 16,-40.8"/>
</g>
<!-- AuthModule -->
<g id="node1" class="node">
<title>AuthModule</title>
<polygon fill="#8dd3c7" stroke="black" points="462.55,-84.8 459.55,-88.8 438.55,-88.8 435.55,-84.8 375.45,-84.8 375.45,-48.8 462.55,-48.8 462.55,-84.8"/>
<text text-anchor="middle" x="419" y="-62.6" font-family="Times,serif" font-size="14.00">AuthModule</text>
</g>
<!-- AppModule -->
<g id="node5" class="node">
<title>AppModule</title>
<polygon fill="#8dd3c7" stroke="black" points="349.66,-149.8 346.66,-153.8 325.66,-153.8 322.66,-149.8 266.34,-149.8 266.34,-113.8 349.66,-113.8 349.66,-149.8"/>
<text text-anchor="middle" x="308" y="-127.6" font-family="Times,serif" font-size="14.00">AppModule</text>
</g>
<!-- AuthModule&#45;&gt;AppModule -->
<g id="edge1" class="edge">
<title>AuthModule&#45;&gt;AppModule</title>
<path fill="none" stroke="black" d="M419,-84.82C419,-102.17 419,-125.8 419,-125.8 419,-125.8 359.96,-125.8 359.96,-125.8"/>
<polygon fill="black" stroke="black" points="359.96,-122.3 349.96,-125.8 359.96,-129.3 359.96,-122.3"/>
</g>
<!-- PrismaModule -->
<g id="node2" class="node">
<title>PrismaModule</title>
<polygon fill="#8dd3c7" stroke="black" points="357.43,-84.8 354.43,-88.8 333.43,-88.8 330.43,-84.8 258.57,-84.8 258.57,-48.8 357.43,-48.8 357.43,-84.8"/>
<text text-anchor="middle" x="308" y="-62.6" font-family="Times,serif" font-size="14.00">PrismaModule</text>
</g>
<!-- PrismaModule&#45;&gt;AppModule -->
<g id="edge2" class="edge">
<title>PrismaModule&#45;&gt;AppModule</title>
<path fill="none" stroke="black" d="M308,-84.91C308,-84.91 308,-103.79 308,-103.79"/>
<polygon fill="black" stroke="black" points="304.5,-103.79 308,-113.79 311.5,-103.79 304.5,-103.79"/>
</g>
<!-- ServicesModule -->
<g id="node3" class="node">
<title>ServicesModule</title>
<polygon fill="#8dd3c7" stroke="black" points="240.47,-84.8 237.47,-88.8 216.47,-88.8 213.47,-84.8 133.53,-84.8 133.53,-48.8 240.47,-48.8 240.47,-84.8"/>
<text text-anchor="middle" x="187" y="-62.6" font-family="Times,serif" font-size="14.00">ServicesModule</text>
</g>
<!-- ServicesModule&#45;&gt;AppModule -->
<g id="edge3" class="edge">
<title>ServicesModule&#45;&gt;AppModule</title>
<path fill="none" stroke="black" d="M187,-84.82C187,-102.17 187,-125.8 187,-125.8 187,-125.8 256.02,-125.8 256.02,-125.8"/>
<polygon fill="black" stroke="black" points="256.02,-129.3 266.02,-125.8 256.02,-122.3 256.02,-129.3"/>
</g>
<!-- UsersModule -->
<g id="node4" class="node">
<title>UsersModule</title>
<polygon fill="#8dd3c7" stroke="black" points="115.92,-84.8 112.92,-88.8 91.92,-88.8 88.92,-84.8 24.08,-84.8 24.08,-48.8 115.92,-48.8 115.92,-84.8"/>
<text text-anchor="middle" x="70" y="-62.6" font-family="Times,serif" font-size="14.00">UsersModule</text>
</g>
<!-- UsersModule&#45;&gt;AppModule -->
<g id="edge4" class="edge">
<title>UsersModule&#45;&gt;AppModule</title>
<path fill="none" stroke="black" d="M70,-85.08C70,-106.12 70,-137.8 70,-137.8 70,-137.8 256.27,-137.8 256.27,-137.8"/>
<polygon fill="black" stroke="black" points="256.27,-141.3 266.27,-137.8 256.27,-134.3 256.27,-141.3"/>
</g>
<!-- AppService -->
<g id="node6" class="node">
<title>AppService</title>
<ellipse fill="#fdb462" stroke="black" cx="544" cy="-66.8" rx="56.74" ry="18"/>
<text text-anchor="middle" x="544" y="-62.6" font-family="Times,serif" font-size="14.00">AppService</text>
</g>
<!-- AppService&#45;&gt;AppModule -->
<g id="edge5" class="edge">
<title>AppService&#45;&gt;AppModule</title>
<path fill="none" stroke="black" d="M544,-85.08C544,-106.12 544,-137.8 544,-137.8 544,-137.8 359.92,-137.8 359.92,-137.8"/>
<polygon fill="black" stroke="black" points="359.92,-134.3 349.92,-137.8 359.92,-141.3 359.92,-134.3"/>
</g>
</g>
</svg>
