<?xml version="1.0" encoding="UTF-8" standalone="no"?>
<!DOCTYPE svg PUBLIC "-//W3C//DTD SVG 1.1//EN"
 "http://www.w3.org/Graphics/SVG/1.1/DTD/svg11.dtd">
<!-- Generated by graphviz version 2.47.3 (20210619.1520)
 -->
<!-- Title: dependencies Pages: 1 -->
<svg width="1054pt" height="261pt"
 viewBox="0.00 0.00 1054.00 260.80" xmlns="http://www.w3.org/2000/svg" xmlns:xlink="http://www.w3.org/1999/xlink">
<g id="graph0" class="graph" transform="scale(1 1) rotate(0) translate(4 256.8)">
<title>dependencies</title>
<polygon fill="white" stroke="transparent" points="-4,4 -4,-256.8 1050,-256.8 1050,4 -4,4"/>
<text text-anchor="middle" x="523" y="-8.2" font-family="sans-serif" font-size="14.00">dependencies</text>
<g id="clust1" class="cluster">
<title>cluster_AppModule</title>
<polygon fill="none" stroke="black" stroke-dasharray="1,5" points="165,-108.8 165,-236.8 773,-236.8 773,-108.8 165,-108.8"/>
</g>
<g id="clust3" class="cluster">
<title>cluster_AppModule_imports</title>
<polygon fill="none" stroke="black" points="311,-116.8 311,-168.8 765,-168.8 765,-116.8 311,-116.8"/>
</g>
<g id="clust6" class="cluster">
<title>cluster_AppModule_providers</title>
<polygon fill="none" stroke="black" points="173,-116.8 173,-168.8 303,-168.8 303,-116.8 173,-116.8"/>
</g>
<g id="clust7" class="cluster">
<title>cluster_AuthModule</title>
<polygon fill="none" stroke="black" stroke-dasharray="1,5" points="8,-32.8 8,-100.8 600,-100.8 600,-32.8 8,-32.8"/>
</g>
<g id="clust12" class="cluster">
<title>cluster_AuthModule_providers</title>
<polygon fill="none" stroke="black" points="16,-40.8 16,-92.8 592,-92.8 592,-40.8 16,-40.8"/>
</g>
<g id="clust19" class="cluster">
<title>cluster_PrismaModule</title>
<polygon fill="none" stroke="black" stroke-dasharray="1,5" points="781,-176.8 781,-244.8 913,-244.8 913,-176.8 781,-176.8"/>
</g>
<g id="clust22" class="cluster">
<title>cluster_PrismaModule_exports</title>
<polygon fill="none" stroke="black" points="789,-184.8 789,-236.8 905,-236.8 905,-184.8 789,-184.8"/>
</g>
<g id="clust25" class="cluster">
<title>cluster_ServicesModule</title>
<polygon fill="none" stroke="black" stroke-dasharray="1,5" points="608,-32.8 608,-100.8 1038,-100.8 1038,-32.8 608,-32.8"/>
</g>
<g id="clust27" class="cluster">
<title>cluster_ServicesModule_imports</title>
<polygon fill="none" stroke="black" points="786,-40.8 786,-92.8 1030,-92.8 1030,-40.8 786,-40.8"/>
</g>
<g id="clust30" class="cluster">
<title>cluster_ServicesModule_providers</title>
<polygon fill="none" stroke="black" points="616,-40.8 616,-92.8 778,-92.8 778,-40.8 616,-40.8"/>
</g>
<!-- AuthModule -->
<g id="node1" class="node">
<title>AuthModule</title>
<polygon fill="#8dd3c7" stroke="black" points="406.55,-160.8 403.55,-164.8 382.55,-164.8 379.55,-160.8 319.45,-160.8 319.45,-124.8 406.55,-124.8 406.55,-160.8"/>
<text text-anchor="middle" x="363" y="-138.6" font-family="Times,serif" font-size="14.00">AuthModule</text>
</g>
<!-- AppModule -->
<g id="node5" class="node">
<title>AppModule</title>
<polygon fill="#8dd3c7" stroke="black" points="511.66,-228.8 508.66,-232.8 487.66,-232.8 484.66,-228.8 428.34,-228.8 428.34,-192.8 511.66,-192.8 511.66,-228.8"/>
<text text-anchor="middle" x="470" y="-206.6" font-family="Times,serif" font-size="14.00">AppModule</text>
</g>
<!-- AuthModule&#45;&gt;AppModule -->
<g id="edge1" class="edge">
<title>AuthModule&#45;&gt;AppModule</title>
<path fill="none" stroke="black" d="M363,-161.07C363,-179.36 363,-204.8 363,-204.8 363,-204.8 418.32,-204.8 418.32,-204.8"/>
<polygon fill="black" stroke="black" points="418.32,-208.3 428.32,-204.8 418.32,-201.3 418.32,-208.3"/>
</g>
<!-- PrismaModule -->
<g id="node2" class="node">
<title>PrismaModule</title>
<polygon fill="#8dd3c7" stroke="black" points="632.43,-160.8 629.43,-164.8 608.43,-164.8 605.43,-160.8 533.57,-160.8 533.57,-124.8 632.43,-124.8 632.43,-160.8"/>
<text text-anchor="middle" x="583" y="-138.6" font-family="Times,serif" font-size="14.00">PrismaModule</text>
</g>
<!-- PrismaModule&#45;&gt;AppModule -->
<g id="edge2" class="edge">
<title>PrismaModule&#45;&gt;AppModule</title>
<path fill="none" stroke="black" d="M566.59,-161.02C566.59,-181.17 566.59,-210.8 566.59,-210.8 566.59,-210.8 521.81,-210.8 521.81,-210.8"/>
<polygon fill="black" stroke="black" points="521.81,-207.3 511.81,-210.8 521.81,-214.3 521.81,-207.3"/>
</g>
<!-- PrismaService  -->
<g id="node11" class="node">
<title>PrismaService </title>
<polygon fill="#fb8072" stroke="black" points="897.36,-228.8 796.64,-228.8 796.64,-192.8 897.36,-192.8 897.36,-228.8"/>
<text text-anchor="middle" x="847" y="-206.6" font-family="Times,serif" font-size="14.00">PrismaService </text>
</g>
<!-- PrismaModule&#45;&gt;PrismaService  -->
<g id="edge10" class="edge">
<title>PrismaModule&#45;&gt;PrismaService </title>
<path fill="none" stroke="black" stroke-dasharray="5,2" d="M599.41,-160.82C599.41,-178.17 599.41,-201.8 599.41,-201.8 599.41,-201.8 786.6,-201.8 786.6,-201.8"/>
<polygon fill="black" stroke="black" points="786.6,-205.3 796.6,-201.8 786.6,-198.3 786.6,-205.3"/>
</g>
<!-- ServicesModule -->
<g id="node3" class="node">
<title>ServicesModule</title>
<polygon fill="#8dd3c7" stroke="black" points="757.47,-160.8 754.47,-164.8 733.47,-164.8 730.47,-160.8 650.53,-160.8 650.53,-124.8 757.47,-124.8 757.47,-160.8"/>
<text text-anchor="middle" x="704" y="-138.6" font-family="Times,serif" font-size="14.00">ServicesModule</text>
</g>
<!-- ServicesModule&#45;&gt;AppModule -->
<g id="edge3" class="edge">
<title>ServicesModule&#45;&gt;AppModule</title>
<path fill="none" stroke="black" d="M704,-161.05C704,-183.82 704,-219.8 704,-219.8 704,-219.8 521.83,-219.8 521.83,-219.8"/>
<polygon fill="black" stroke="black" points="521.83,-216.3 511.83,-219.8 521.83,-223.3 521.83,-216.3"/>
</g>
<!-- UsersModule -->
<g id="node4" class="node">
<title>UsersModule</title>
<polygon fill="#8dd3c7" stroke="black" points="515.92,-160.8 512.92,-164.8 491.92,-164.8 488.92,-160.8 424.08,-160.8 424.08,-124.8 515.92,-124.8 515.92,-160.8"/>
<text text-anchor="middle" x="470" y="-138.6" font-family="Times,serif" font-size="14.00">UsersModule</text>
</g>
<!-- UsersModule&#45;&gt;AppModule -->
<g id="edge4" class="edge">
<title>UsersModule&#45;&gt;AppModule</title>
<path fill="none" stroke="black" d="M470,-161.02C470,-161.02 470,-182.53 470,-182.53"/>
<polygon fill="black" stroke="black" points="466.5,-182.53 470,-192.53 473.5,-182.53 466.5,-182.53"/>
</g>
<!-- AppService -->
<g id="node6" class="node">
<title>AppService</title>
<ellipse fill="#fdb462" stroke="black" cx="238" cy="-142.8" rx="56.74" ry="18"/>
<text text-anchor="middle" x="238" y="-138.6" font-family="Times,serif" font-size="14.00">AppService</text>
</g>
<!-- AppService&#45;&gt;AppModule -->
<g id="edge5" class="edge">
<title>AppService&#45;&gt;AppModule</title>
<path fill="none" stroke="black" d="M238,-161.09C238,-183.01 238,-216.8 238,-216.8 238,-216.8 418.26,-216.8 418.26,-216.8"/>
<polygon fill="black" stroke="black" points="418.26,-220.3 428.26,-216.8 418.26,-213.3 418.26,-220.3"/>
</g>
<!-- AuthService -->
<g id="node7" class="node">
<title>AuthService</title>
<ellipse fill="#fdb462" stroke="black" cx="231" cy="-66.8" rx="59.11" ry="18"/>
<text text-anchor="middle" x="231" y="-62.6" font-family="Times,serif" font-size="14.00">AuthService</text>
</g>
<!-- AuthService&#45;&gt;AuthModule -->
<g id="edge6" class="edge">
<title>AuthService&#45;&gt;AuthModule</title>
<path fill="none" stroke="black" d="M290.33,-66.8C296.93,-66.8 301.32,-66.8 301.32,-66.8 301.32,-66.8 301.32,-142.8 301.32,-142.8 301.32,-142.8 309.16,-142.8 309.16,-142.8"/>
<polygon fill="black" stroke="black" points="309.16,-146.3 319.16,-142.8 309.16,-139.3 309.16,-146.3"/>
</g>
<!-- BasicStrategy -->
<g id="node8" class="node">
<title>BasicStrategy</title>
<ellipse fill="#fdb462" stroke="black" cx="89" cy="-66.8" rx="64.84" ry="18"/>
<text text-anchor="middle" x="89" y="-62.6" font-family="Times,serif" font-size="14.00">BasicStrategy</text>
</g>
<!-- BasicStrategy&#45;&gt;AuthModule -->
<g id="edge7" class="edge">
<title>BasicStrategy&#45;&gt;AuthModule</title>
<path fill="none" stroke="black" d="M89,-85.04C89,-92.23 89,-98.8 89,-98.8 89,-98.8 341.11,-98.8 341.11,-98.8 341.11,-98.8 341.11,-114.65 341.11,-114.65"/>
<polygon fill="black" stroke="black" points="337.61,-114.65 341.11,-124.65 344.61,-114.65 337.61,-114.65"/>
</g>
<!-- PrismaService -->
<g id="node9" class="node">
<title>PrismaService</title>
<ellipse fill="#fdb462" stroke="black" cx="517" cy="-66.8" rx="66.63" ry="18"/>
<text text-anchor="middle" x="517" y="-62.6" font-family="Times,serif" font-size="14.00">PrismaService</text>
</g>
<!-- PrismaService&#45;&gt;AuthModule -->
<g id="edge8" class="edge">
<title>PrismaService&#45;&gt;AuthModule</title>
<path fill="none" stroke="black" d="M472.03,-80.55C472.03,-93.78 472.03,-111.8 472.03,-111.8 472.03,-111.8 384.89,-111.8 384.89,-111.8 384.89,-111.8 384.89,-114.77 384.89,-114.77"/>
<polygon fill="black" stroke="black" points="381.39,-114.77 384.89,-124.77 388.39,-114.77 381.39,-114.77"/>
</g>
<!-- PrismaService&#45;&gt;PrismaModule -->
<g id="edge11" class="edge">
<title>PrismaService&#45;&gt;PrismaModule</title>
<path fill="none" stroke="black" d="M558.8,-81.1C558.8,-81.1 558.8,-114.53 558.8,-114.53"/>
<polygon fill="black" stroke="black" points="555.3,-114.53 558.8,-124.53 562.3,-114.53 555.3,-114.53"/>
</g>
<!-- PrismaService&#45;&gt;UsersModule -->
<g id="edge15" class="edge">
<title>PrismaService&#45;&gt;UsersModule</title>
<path fill="none" stroke="black" d="M493.87,-84.05C493.87,-84.05 493.87,-114.56 493.87,-114.56"/>
<polygon fill="black" stroke="black" points="490.37,-114.56 493.87,-124.56 497.37,-114.56 490.37,-114.56"/>
</g>
<!-- UsersService -->
<g id="node10" class="node">
<title>UsersService</title>
<ellipse fill="#fdb462" stroke="black" cx="370" cy="-66.8" rx="61.95" ry="18"/>
<text text-anchor="middle" x="370" y="-62.6" font-family="Times,serif" font-size="14.00">UsersService</text>
</g>
<!-- UsersService&#45;&gt;AuthModule -->
<g id="edge9" class="edge">
<title>UsersService&#45;&gt;AuthModule</title>
<path fill="none" stroke="black" d="M363,-84.81C363,-84.81 363,-114.65 363,-114.65"/>
<polygon fill="black" stroke="black" points="359.5,-114.65 363,-124.65 366.5,-114.65 359.5,-114.65"/>
</g>
<!-- UsersService&#45;&gt;UsersModule -->
<g id="edge16" class="edge">
<title>UsersService&#45;&gt;UsersModule</title>
<path fill="none" stroke="black" d="M428.13,-73.28C428.13,-73.28 428.13,-114.71 428.13,-114.71"/>
<polygon fill="black" stroke="black" points="424.63,-114.71 428.13,-124.71 431.63,-114.71 424.63,-114.71"/>
</g>
<!-- IntranetModule -->
<g id="node12" class="node">
<title>IntranetModule</title>
<polygon fill="#8dd3c7" stroke="black" points="897.58,-84.8 894.58,-88.8 873.58,-88.8 870.58,-84.8 794.42,-84.8 794.42,-48.8 897.58,-48.8 897.58,-84.8"/>
<text text-anchor="middle" x="846" y="-62.6" font-family="Times,serif" font-size="14.00">IntranetModule</text>
</g>
<!-- IntranetModule&#45;&gt;ServicesModule -->
<g id="edge12" class="edge">
<title>IntranetModule&#45;&gt;ServicesModule</title>
<path fill="none" stroke="black" d="M847,-84.83C847,-105.57 847,-136.8 847,-136.8 847,-136.8 767.65,-136.8 767.65,-136.8"/>
<polygon fill="black" stroke="black" points="767.65,-133.3 757.65,-136.8 767.65,-140.3 767.65,-133.3"/>
</g>
<!-- WeatherModule -->
<g id="node13" class="node">
<title>WeatherModule</title>
<polygon fill="#8dd3c7" stroke="black" points="1022.46,-84.8 1019.46,-88.8 998.46,-88.8 995.46,-84.8 915.54,-84.8 915.54,-48.8 1022.46,-48.8 1022.46,-84.8"/>
<text text-anchor="middle" x="969" y="-62.6" font-family="Times,serif" font-size="14.00">WeatherModule</text>
</g>
<!-- WeatherModule&#45;&gt;ServicesModule -->
<g id="edge13" class="edge">
<title>WeatherModule&#45;&gt;ServicesModule</title>
<path fill="none" stroke="black" d="M969,-85C969,-109.16 969,-148.8 969,-148.8 969,-148.8 767.63,-148.8 767.63,-148.8"/>
<polygon fill="black" stroke="black" points="767.63,-145.3 757.63,-148.8 767.63,-152.3 767.63,-145.3"/>
</g>
<!-- ServicesService -->
<g id="node14" class="node">
<title>ServicesService</title>
<ellipse fill="#fdb462" stroke="black" cx="697" cy="-66.8" rx="72.91" ry="18"/>
<text text-anchor="middle" x="697" y="-62.6" font-family="Times,serif" font-size="14.00">ServicesService</text>
</g>
<!-- ServicesService&#45;&gt;ServicesModule -->
<g id="edge14" class="edge">
<title>ServicesService&#45;&gt;ServicesModule</title>
<path fill="none" stroke="black" d="M704,-84.81C704,-84.81 704,-114.65 704,-114.65"/>
<polygon fill="black" stroke="black" points="700.5,-114.65 704,-124.65 707.5,-114.65 700.5,-114.65"/>
</g>
</g>
</svg>
